<svg width="20" height="20" viewBox="0 0 20 20" fill="none" xmlns="http://www.w3.org/2000/svg">
<g id="attach-outline" opacity="0.2">
<rect id="Rectangle" opacity="0.01" width="20" height="20" fill="black"/>
<path id="Path" d="M7.74168 17.5C6.35095 17.4933 5.02105 16.9289 4.05001 15.9333C3.08642 15.02 2.5256 13.761 2.49121 12.4338C2.45682 11.1067 2.95167 9.82028 3.86668 8.85832L10 2.66666C10.6619 2.006 11.5651 1.64471 12.5 1.66666C13.5011 1.67006 14.4589 2.0754 15.1583 2.79166C16.5926 4.17257 16.6483 6.45057 15.2833 7.89999L9.11668 14.0917C8.71771 14.4933 8.17447 14.7184 7.60834 14.7167C6.99666 14.7175 6.41062 14.471 5.98334 14.0333C5.10354 13.1815 5.0738 11.78 5.91668 10.8917L11.6083 5.17499C11.9425 4.95303 12.3875 5.00071 12.667 5.28846C12.9466 5.5762 12.9815 6.02231 12.75 6.34999L7.05834 12.0667C6.86088 12.3045 6.89055 12.6568 7.12501 12.8583C7.24227 12.9764 7.40035 13.045 7.56668 13.05C7.69112 13.0518 7.81112 13.0038 7.90001 12.9167L14.0583 6.72499C14.7776 5.92593 14.7219 4.69738 13.9333 3.96666C13.2024 3.20778 12.0057 3.15288 11.2083 3.84166L5.05001 9.99999C4.44517 10.6496 4.12441 11.5137 4.15883 12.4006C4.19324 13.2876 4.57998 14.1242 5.23334 14.725C5.88864 15.4043 6.78951 15.7917 7.73334 15.8C8.54698 15.8066 9.32971 15.4887 9.90834 14.9167L16.0667 8.72499C16.3911 8.39822 16.9191 8.39635 17.2458 8.72082C17.5726 9.04529 17.5745 9.57322 17.25 9.89999L11.0917 16.0917C10.2085 16.9905 9.00181 17.4978 7.74168 17.5Z" fill="black"/>
</g>
</svg>
