<svg width="19" height="19" viewBox="0 0 19 19" fill="none" xmlns="http://www.w3.org/2000/svg">
<g id="globe-2-outline" opacity="0.2">
<rect id="Rectangle" opacity="0.01" width="19" height="19" fill="black"/>
<rect id="Rectangle_2" opacity="0.01" width="19" height="19" fill="black"/>
<path id="Shape" fill-rule="evenodd" clip-rule="evenodd" d="M1.58331 9.49998C1.58331 5.12773 5.12773 1.58331 9.49998 1.58331C11.5996 1.58331 13.6132 2.41739 15.0979 3.90205C16.5826 5.38671 17.4166 7.40035 17.4166 9.49998C17.4166 13.8722 13.8722 17.4166 9.49998 17.4166C5.12773 17.4166 1.58331 13.8722 1.58331 9.49998ZM10.9171 3.3329C10.4523 3.22552 9.97702 3.16976 9.49998 3.16665C6.00218 3.16665 3.16665 6.00218 3.16665 9.49998C3.16785 9.88224 3.20228 10.2637 3.26956 10.64C4.29873 11.0675 5.95331 11.5425 7.0379 10.6954C7.78998 10.1333 7.78998 9.49998 7.78998 8.42331C7.72159 7.5245 7.89086 6.62351 8.28081 5.81081C8.63677 5.24267 9.14391 4.78487 9.7454 4.48873C9.78169 4.46605 9.81798 4.44365 9.85416 4.42133L9.85419 4.42131C10.0074 4.32676 10.1587 4.23343 10.2996 4.12456C10.5674 3.91546 10.7794 3.64354 10.9171 3.3329ZM3.95831 12.5083C4.47561 12.6428 5.00721 12.7145 5.54165 12.7221C6.43591 12.7467 7.31214 12.4676 8.02748 11.9304C9.38123 10.8696 9.38123 9.5079 9.38123 8.4154C9.32119 7.78308 9.42195 7.14584 9.67415 6.5629C9.90326 6.25091 10.2085 6.00288 10.5608 5.84248C10.8125 5.69539 11.0557 5.53416 11.2891 5.35956C11.7811 4.97095 12.1632 4.46066 12.3975 3.87915C13.5113 4.44904 14.4314 5.33606 15.0416 6.42831C13.9096 6.58665 12.3025 6.95873 11.9858 8.43123C11.9143 8.78305 11.8772 9.14098 11.875 9.49998C11.9006 9.90124 11.8215 10.3023 11.6454 10.6637L11.5662 10.7983C11.0516 11.6533 10.4737 12.6271 11.2575 13.965C11.3525 14.1312 11.4554 14.2895 11.5583 14.4479L11.5583 14.4479L11.5583 14.4479C11.769 14.6913 11.9111 14.9864 11.97 15.3029C11.1914 15.6461 10.3508 15.8266 9.49998 15.8333C7.18371 15.8217 5.05852 14.5466 3.95831 12.5083ZM12.9041 13.6008C13.0989 13.885 13.266 14.1872 13.4029 14.5033L13.3791 14.5429C15.38 13.0096 16.2712 10.4292 15.6433 7.9879C14.8833 8.04331 13.6562 8.20165 13.5296 8.77956C13.4814 9.04068 13.4575 9.3057 13.4583 9.57123C13.4886 10.239 13.3411 10.9029 13.0308 11.495L12.9516 11.6296C12.4529 12.4212 12.3421 12.6746 12.6508 13.2129C12.73 13.3475 12.8171 13.4741 12.9041 13.6008Z" fill="black"/>
</g>
</svg>
